<svg width="285" height="49" viewBox="0 0 285 49" fill="none" xmlns="http://www.w3.org/2000/svg">
<rect width="285" height="49" rx="6" fill="white"/>
<rect x="0.5" y="0.5" width="284" height="48" rx="5.5" stroke="black" stroke-opacity="0.1"/>
<g clip-path="url(#clip0_56_56)">
<path d="M26.528 26.976C26.3253 27.712 26 28.32 25.552 28.8C25.104 29.2693 24.5707 29.616 23.952 29.84C23.3333 30.0533 22.6507 30.16 21.904 30.16C20.8373 30.16 19.9147 29.9467 19.136 29.52C18.3573 29.0827 17.76 28.4587 17.344 27.648C16.928 26.8373 16.72 25.8613 16.72 24.72C16.72 23.5787 16.928 22.6027 17.344 21.792C17.76 20.9813 18.3573 20.3627 19.136 19.936C19.9147 19.4987 20.832 19.28 21.888 19.28C22.624 19.28 23.3013 19.3867 23.92 19.6C24.5387 19.8027 25.0613 20.1173 25.488 20.544C25.9147 20.9707 26.2187 21.52 26.4 22.192L23.984 23.168C23.8347 22.5067 23.5893 22.0533 23.248 21.808C22.9173 21.5627 22.496 21.44 21.984 21.44C21.4827 21.44 21.0453 21.5627 20.672 21.808C20.3093 22.0533 20.0267 22.4213 19.824 22.912C19.632 23.392 19.536 23.9947 19.536 24.72C19.536 25.4347 19.6267 26.0373 19.808 26.528C19.9893 27.0187 20.2613 27.3867 20.624 27.632C20.9973 27.8773 21.456 28 22 28C22.512 28 22.944 27.8613 23.296 27.584C23.6587 27.296 23.904 26.8587 24.032 26.272L26.528 26.976ZM31.6746 21.84C32.5173 21.84 33.2533 22.0053 33.8826 22.336C34.5226 22.656 35.0186 23.1307 35.3706 23.76C35.7333 24.3787 35.9146 25.1253 35.9146 26C35.9146 26.8747 35.7333 27.6267 35.3706 28.256C35.0186 28.8747 34.5226 29.3493 33.8826 29.68C33.2533 30 32.5173 30.16 31.6746 30.16C30.8533 30.16 30.1226 30 29.4826 29.68C28.8426 29.3493 28.3413 28.8747 27.9786 28.256C27.6266 27.6267 27.4506 26.8747 27.4506 26C27.4506 25.1253 27.6266 24.3787 27.9786 23.76C28.3413 23.1307 28.8426 22.656 29.4826 22.336C30.1226 22.0053 30.8533 21.84 31.6746 21.84ZM31.6746 23.776C31.3653 23.776 31.0986 23.8507 30.8746 24C30.6506 24.1493 30.48 24.3893 30.3626 24.72C30.2453 25.0507 30.1866 25.4773 30.1866 26C30.1866 26.5227 30.2453 26.9493 30.3626 27.28C30.48 27.6 30.6506 27.84 30.8746 28C31.0986 28.1493 31.3653 28.224 31.6746 28.224C31.9946 28.224 32.2666 28.1493 32.4906 28C32.7146 27.84 32.8853 27.6 33.0026 27.28C33.12 26.9493 33.1786 26.5227 33.1786 26C33.1786 25.4773 33.12 25.0507 33.0026 24.72C32.8853 24.3893 32.7146 24.1493 32.4906 24C32.2666 23.8507 31.9946 23.776 31.6746 23.776ZM37.4448 30V22H39.8768L39.9568 23.552C40.2128 22.9867 40.5701 22.56 41.0288 22.272C41.4981 21.984 42.0368 21.84 42.6448 21.84C43.2421 21.84 43.7594 21.9733 44.1968 22.24C44.6341 22.5067 44.9594 22.9013 45.1728 23.424C45.3434 23.072 45.5621 22.7787 45.8288 22.544C46.1061 22.3093 46.4208 22.1333 46.7728 22.016C47.1248 21.8987 47.4874 21.84 47.8608 21.84C48.3941 21.84 48.8634 21.9467 49.2688 22.16C49.6741 22.3627 49.9941 22.6773 50.2288 23.104C50.4741 23.52 50.5968 24.0427 50.5968 24.672V30H47.8768V25.296C47.8768 24.784 47.7754 24.4267 47.5728 24.224C47.3808 24.0213 47.1194 23.92 46.7888 23.92C46.5221 23.92 46.2768 23.9893 46.0528 24.128C45.8394 24.256 45.6741 24.4533 45.5568 24.72C45.4394 24.9867 45.3808 25.3227 45.3808 25.728V30H42.6608V25.296C42.6608 24.784 42.5594 24.4267 42.3568 24.224C42.1541 24.0213 41.8928 23.92 41.5728 23.92C41.3274 23.92 41.0928 23.984 40.8688 24.112C40.6554 24.24 40.4848 24.4427 40.3568 24.72C40.2288 24.9867 40.1648 25.3387 40.1648 25.776V30H37.4448ZM52.5073 33.36V22H54.9553L55.0993 24.896L54.7793 24.56C54.8539 24.0267 55.0193 23.5573 55.2753 23.152C55.5313 22.7467 55.8619 22.4267 56.2673 22.192C56.6726 21.9573 57.1366 21.84 57.6593 21.84C58.3206 21.84 58.8966 22.0053 59.3873 22.336C59.8779 22.656 60.2566 23.1253 60.5233 23.744C60.8006 24.352 60.9392 25.0933 60.9392 25.968C60.9392 26.8427 60.8006 27.5947 60.5233 28.224C60.2459 28.8533 59.8566 29.3333 59.3553 29.664C58.8646 29.9947 58.2886 30.16 57.6273 30.16C56.9019 30.16 56.3153 29.9467 55.8673 29.52C55.4193 29.0827 55.1206 28.5333 54.9713 27.872L55.2273 27.488V33.36H52.5073ZM56.6993 28.16C57.1686 28.16 57.5366 27.9893 57.8033 27.648C58.0699 27.296 58.2033 26.7467 58.2033 26C58.2033 25.2533 58.0699 24.7093 57.8033 24.368C57.5473 24.016 57.1846 23.84 56.7153 23.84C56.4166 23.84 56.1553 23.9253 55.9313 24.096C55.7073 24.256 55.5313 24.496 55.4033 24.816C55.2859 25.136 55.2273 25.5307 55.2273 26C55.2273 26.448 55.2806 26.8373 55.3873 27.168C55.5046 27.488 55.6753 27.7333 55.8993 27.904C56.1233 28.0747 56.3899 28.16 56.6993 28.16ZM65.2265 18.608V27.28C65.2265 27.632 65.2852 27.8827 65.4025 28.032C65.5198 28.1813 65.7172 28.256 65.9945 28.256C66.1545 28.256 66.2878 28.2453 66.3945 28.224C66.5012 28.2027 66.6292 28.1707 66.7785 28.128L66.6025 29.76C66.4105 29.8773 66.1598 29.9733 65.8505 30.048C65.5412 30.1227 65.2372 30.16 64.9385 30.16C64.0852 30.16 63.4665 29.9627 63.0825 29.568C62.6985 29.1733 62.5065 28.528 62.5065 27.632V18.608H65.2265ZM71.6769 30.16C70.7915 30.16 70.0235 29.9947 69.3729 29.664C68.7329 29.3333 68.2369 28.8587 67.8849 28.24C67.5329 27.6213 67.3569 26.8747 67.3569 26C67.3569 25.1253 67.5329 24.3787 67.8849 23.76C68.2369 23.1413 68.7275 22.6667 69.3569 22.336C69.9969 22.0053 70.7275 21.84 71.5489 21.84C72.3915 21.84 73.1062 22.0053 73.6929 22.336C74.2902 22.656 74.7435 23.104 75.0529 23.68C75.3622 24.2453 75.5169 24.896 75.5169 25.632C75.5169 25.824 75.5115 26.016 75.5009 26.208C75.4902 26.4 75.4742 26.56 75.4529 26.688H69.1169V25.232H74.2529L72.9569 25.728C72.9569 25.088 72.8395 24.5973 72.6049 24.256C72.3809 23.9147 72.0289 23.744 71.5489 23.744C71.2075 23.744 70.9142 23.824 70.6689 23.984C70.4342 24.144 70.2529 24.3947 70.1249 24.736C70.0075 25.0773 69.9489 25.5147 69.9489 26.048C69.9489 26.5707 70.0182 26.9973 70.1569 27.328C70.2955 27.648 70.4929 27.8827 70.7489 28.032C71.0049 28.1707 71.3142 28.24 71.6769 28.24C72.0822 28.24 72.4022 28.16 72.6369 28C72.8822 27.84 73.0635 27.616 73.1809 27.328L75.3569 28.048C75.2075 28.5067 74.9462 28.896 74.5729 29.216C74.2102 29.5253 73.7729 29.76 73.2609 29.92C72.7595 30.08 72.2315 30.16 71.6769 30.16ZM80.2888 19.456V27.152C80.2888 27.536 80.3794 27.8133 80.5608 27.984C80.7528 28.144 81.0141 28.224 81.3448 28.224C81.6008 28.224 81.8194 28.1973 82.0008 28.144C82.1928 28.08 82.3634 27.9893 82.5128 27.872L82.8008 29.552C82.5341 29.744 82.1981 29.8933 81.7928 30C81.3874 30.1067 80.9714 30.16 80.5448 30.16C79.9368 30.16 79.4088 30.0747 78.9608 29.904C78.5234 29.7333 78.1821 29.4613 77.9368 29.088C77.7021 28.7147 77.5794 28.2187 77.5688 27.6V20.208L80.2888 19.456ZM82.6728 22V23.936H76.1928V22H82.6728ZM87.8331 30.16C86.9478 30.16 86.1798 29.9947 85.5291 29.664C84.8891 29.3333 84.3931 28.8587 84.0411 28.24C83.6891 27.6213 83.5131 26.8747 83.5131 26C83.5131 25.1253 83.6891 24.3787 84.0411 23.76C84.3931 23.1413 84.8838 22.6667 85.5131 22.336C86.1531 22.0053 86.8838 21.84 87.7051 21.84C88.5478 21.84 89.2625 22.0053 89.8491 22.336C90.4465 22.656 90.8998 23.104 91.2091 23.68C91.5185 24.2453 91.6731 24.896 91.6731 25.632C91.6731 25.824 91.6678 26.016 91.6571 26.208C91.6465 26.4 91.6305 26.56 91.6091 26.688H85.2731V25.232H90.4091L89.1131 25.728C89.1131 25.088 88.9958 24.5973 88.7611 24.256C88.5371 23.9147 88.1851 23.744 87.7051 23.744C87.3638 23.744 87.0705 23.824 86.8251 23.984C86.5905 24.144 86.4091 24.3947 86.2811 24.736C86.1638 25.0773 86.1051 25.5147 86.1051 26.048C86.1051 26.5707 86.1745 26.9973 86.3131 27.328C86.4518 27.648 86.6491 27.8827 86.9051 28.032C87.1611 28.1707 87.4705 28.24 87.8331 28.24C88.2385 28.24 88.5585 28.16 88.7931 28C89.0385 27.84 89.2198 27.616 89.3371 27.328L91.5131 28.048C91.3638 28.5067 91.1025 28.896 90.7291 29.216C90.3665 29.5253 89.9291 29.76 89.4171 29.92C88.9158 30.08 88.3878 30.16 87.8331 30.16ZM100.717 19.44V30H97.9649V19.44H100.717ZM112.419 26.976C112.216 27.712 111.891 28.32 111.443 28.8C110.995 29.2693 110.461 29.616 109.843 29.84C109.224 30.0533 108.541 30.16 107.795 30.16C106.728 30.16 105.805 29.9467 105.027 29.52C104.248 29.0827 103.651 28.4587 103.235 27.648C102.819 26.8373 102.611 25.8613 102.611 24.72C102.611 23.5787 102.819 22.6027 103.235 21.792C103.651 20.9813 104.248 20.3627 105.027 19.936C105.805 19.4987 106.723 19.28 107.779 19.28C108.515 19.28 109.192 19.3867 109.811 19.6C110.429 19.8027 110.952 20.1173 111.379 20.544C111.805 20.9707 112.109 21.52 112.291 22.192L109.875 23.168C109.725 22.5067 109.48 22.0533 109.139 21.808C108.808 21.5627 108.387 21.44 107.875 21.44C107.373 21.44 106.936 21.5627 106.563 21.808C106.2 22.0533 105.917 22.4213 105.715 22.912C105.523 23.392 105.427 23.9947 105.427 24.72C105.427 25.4347 105.517 26.0373 105.699 26.528C105.88 27.0187 106.152 27.3867 106.515 27.632C106.888 27.8773 107.347 28 107.891 28C108.403 28 108.835 27.8613 109.187 27.584C109.549 27.296 109.795 26.8587 109.923 26.272L112.419 26.976ZM118.685 19.28C119.752 19.28 120.669 19.4987 121.437 19.936C122.216 20.3627 122.813 20.9813 123.229 21.792C123.645 22.6027 123.853 23.5787 123.853 24.72C123.853 25.8613 123.645 26.8373 123.229 27.648C122.813 28.4587 122.216 29.0827 121.437 29.52C120.669 29.9467 119.752 30.16 118.685 30.16C117.619 30.16 116.696 29.9467 115.917 29.52C115.139 29.0827 114.541 28.4587 114.125 27.648C113.709 26.8373 113.501 25.8613 113.501 24.72C113.501 23.5787 113.709 22.6027 114.125 21.792C114.541 20.9813 115.139 20.3627 115.917 19.936C116.696 19.4987 117.619 19.28 118.685 19.28ZM118.685 21.44C118.173 21.44 117.741 21.5627 117.389 21.808C117.037 22.0533 116.771 22.4213 116.589 22.912C116.408 23.392 116.317 23.9947 116.317 24.72C116.317 25.4347 116.408 26.0373 116.589 26.528C116.771 27.0187 117.037 27.3867 117.389 27.632C117.741 27.8773 118.173 28 118.685 28C119.197 28 119.624 27.8773 119.965 27.632C120.317 27.3867 120.584 27.0187 120.765 26.528C120.947 26.0373 121.037 25.4347 121.037 24.72C121.037 23.9947 120.947 23.392 120.765 22.912C120.584 22.4213 120.317 22.0533 119.965 21.808C119.624 21.5627 119.197 21.44 118.685 21.44ZM135.266 19.44V30H132.21L128.93 24.288L128.13 22.72H128.114L128.178 24.672V30H125.746V19.44H128.802L132.082 25.152L132.882 26.72H132.898L132.834 24.768V19.44H135.266ZM141.734 19.28C142.715 19.28 143.579 19.4347 144.326 19.744C145.083 20.0427 145.739 20.4853 146.294 21.072L144.966 22.848C144.507 22.368 144.011 22.0107 143.478 21.776C142.955 21.5307 142.358 21.408 141.686 21.408C141.291 21.408 140.971 21.4507 140.726 21.536C140.48 21.6213 140.304 21.7387 140.198 21.888C140.091 22.0373 140.038 22.208 140.038 22.4C140.038 22.624 140.139 22.816 140.342 22.976C140.555 23.1253 140.896 23.2533 141.366 23.36L143.142 23.76C144.198 24.0053 144.971 24.3627 145.462 24.832C145.952 25.3013 146.198 25.9253 146.198 26.704C146.198 27.4507 146.006 28.0853 145.622 28.608C145.238 29.12 144.71 29.5093 144.038 29.776C143.366 30.032 142.598 30.16 141.734 30.16C141.03 30.16 140.358 30.0853 139.718 29.936C139.078 29.776 138.502 29.552 137.99 29.264C137.478 28.976 137.046 28.6453 136.694 28.272L138.022 26.432C138.288 26.7413 138.614 27.0187 138.998 27.264C139.392 27.4987 139.819 27.6853 140.278 27.824C140.747 27.9627 141.222 28.032 141.702 28.032C142.075 28.032 142.384 27.9947 142.63 27.92C142.886 27.8453 143.072 27.7333 143.19 27.584C143.307 27.4347 143.366 27.2587 143.366 27.056C143.366 26.832 143.286 26.6453 143.126 26.496C142.966 26.336 142.662 26.2027 142.214 26.096L140.262 25.664C139.664 25.5253 139.131 25.344 138.662 25.12C138.203 24.8853 137.84 24.576 137.574 24.192C137.307 23.7973 137.174 23.3067 137.174 22.72C137.174 22.0587 137.355 21.472 137.718 20.96C138.08 20.4373 138.603 20.0267 139.286 19.728C139.968 19.4293 140.784 19.28 141.734 19.28ZM157.471 30H154.639L153.903 27.616H150.287L149.535 30H146.767L150.479 19.44H153.775L157.471 30ZM150.799 25.744H153.391L152.095 21.472L150.799 25.744ZM167.699 30H164.419L162.435 26.624L160.515 30H157.395L160.979 24.688L157.603 19.44H160.851L162.659 22.672L164.483 19.44H167.475L164.099 24.608L167.699 30ZM174.68 21.072C174.125 21.072 173.72 20.9707 173.464 20.768C173.218 20.5547 173.096 20.224 173.096 19.776C173.096 19.3173 173.218 18.9867 173.464 18.784C173.72 18.5707 174.125 18.464 174.68 18.464C175.224 18.464 175.624 18.5707 175.88 18.784C176.136 18.9867 176.264 19.3173 176.264 19.776C176.264 20.224 176.136 20.5547 175.88 20.768C175.624 20.9707 175.224 21.072 174.68 21.072ZM176.04 22V30H173.32V22H176.04ZM181.768 21.84C182.579 21.84 183.251 21.9573 183.784 22.192C184.328 22.416 184.749 22.72 185.048 23.104C185.357 23.4773 185.549 23.8827 185.624 24.32L183.112 25.152C183.037 24.6933 182.899 24.352 182.696 24.128C182.504 23.8933 182.221 23.776 181.848 23.776C181.507 23.776 181.219 23.856 180.984 24.016C180.76 24.1653 180.589 24.4107 180.472 24.752C180.355 25.0827 180.296 25.5093 180.296 26.032C180.296 26.5547 180.36 26.9813 180.488 27.312C180.616 27.632 180.797 27.8667 181.032 28.016C181.267 28.1547 181.544 28.224 181.864 28.224C182.131 28.224 182.349 28.176 182.52 28.08C182.701 27.9733 182.851 27.824 182.968 27.632C183.085 27.44 183.16 27.2053 183.192 26.928L185.64 27.712C185.565 28.1813 185.363 28.6027 185.032 28.976C184.712 29.3387 184.285 29.6267 183.752 29.84C183.219 30.0533 182.595 30.16 181.88 30.16C181.005 30.16 180.243 30 179.592 29.68C178.941 29.3493 178.44 28.8747 178.088 28.256C177.736 27.6267 177.56 26.8747 177.56 26C177.56 25.1253 177.736 24.3787 178.088 23.76C178.44 23.1307 178.931 22.656 179.56 22.336C180.2 22.0053 180.936 21.84 181.768 21.84ZM190.862 21.84C191.705 21.84 192.441 22.0053 193.07 22.336C193.71 22.656 194.206 23.1307 194.558 23.76C194.921 24.3787 195.102 25.1253 195.102 26C195.102 26.8747 194.921 27.6267 194.558 28.256C194.206 28.8747 193.71 29.3493 193.07 29.68C192.441 30 191.705 30.16 190.862 30.16C190.041 30.16 189.31 30 188.67 29.68C188.03 29.3493 187.529 28.8747 187.166 28.256C186.814 27.6267 186.638 26.8747 186.638 26C186.638 25.1253 186.814 24.3787 187.166 23.76C187.529 23.1307 188.03 22.656 188.67 22.336C189.31 22.0053 190.041 21.84 190.862 21.84ZM190.862 23.776C190.553 23.776 190.286 23.8507 190.062 24C189.838 24.1493 189.667 24.3893 189.55 24.72C189.433 25.0507 189.374 25.4773 189.374 26C189.374 26.5227 189.433 26.9493 189.55 27.28C189.667 27.6 189.838 27.84 190.062 28C190.286 28.1493 190.553 28.224 190.862 28.224C191.182 28.224 191.454 28.1493 191.678 28C191.902 27.84 192.073 27.6 192.19 27.28C192.307 26.9493 192.366 26.5227 192.366 26C192.366 25.4773 192.307 25.0507 192.19 24.72C192.073 24.3893 191.902 24.1493 191.678 24C191.454 23.8507 191.182 23.776 190.862 23.776ZM196.632 30V22H199.064L199.208 24.752L198.904 24.448C199.011 23.872 199.198 23.392 199.464 23.008C199.742 22.624 200.083 22.336 200.488 22.144C200.904 21.9413 201.368 21.84 201.88 21.84C202.435 21.84 202.915 21.9467 203.32 22.16C203.736 22.3733 204.062 22.688 204.296 23.104C204.531 23.52 204.648 24.0427 204.648 24.672V30H201.928V25.392C201.928 24.8373 201.822 24.4533 201.608 24.24C201.395 24.0267 201.123 23.92 200.792 23.92C200.536 23.92 200.296 23.984 200.072 24.112C199.848 24.2293 199.672 24.4213 199.544 24.688C199.416 24.9547 199.352 25.312 199.352 25.76V30H196.632ZM214.492 30.16C213.692 30.16 212.946 30.032 212.252 29.776C211.57 29.5093 211.004 29.1307 210.556 28.64L211.836 27.136C212.103 27.4773 212.455 27.7653 212.892 28C213.34 28.224 213.836 28.336 214.38 28.336C214.711 28.336 214.983 28.288 215.196 28.192C215.41 28.096 215.516 27.9467 215.516 27.744C215.516 27.5947 215.463 27.4773 215.356 27.392C215.25 27.296 215.036 27.216 214.716 27.152L213.596 26.928C212.594 26.7253 211.879 26.4267 211.452 26.032C211.036 25.6267 210.828 25.0987 210.828 24.448C210.828 24.0107 210.962 23.5947 211.228 23.2C211.495 22.7947 211.906 22.4693 212.46 22.224C213.015 21.968 213.724 21.84 214.588 21.84C215.399 21.84 216.114 21.9573 216.732 22.192C217.351 22.4267 217.842 22.768 218.204 23.216L216.908 24.688C216.652 24.368 216.322 24.1173 215.916 23.936C215.511 23.7547 215.106 23.664 214.7 23.664C214.444 23.664 214.226 23.6907 214.044 23.744C213.874 23.7867 213.746 23.8507 213.66 23.936C213.575 24.0213 213.532 24.128 213.532 24.256C213.532 24.3947 213.596 24.5173 213.724 24.624C213.863 24.72 214.114 24.8053 214.476 24.88L215.932 25.168C216.754 25.3173 217.346 25.5893 217.708 25.984C218.071 26.3787 218.252 26.8533 218.252 27.408C218.252 27.9307 218.114 28.4 217.836 28.816C217.559 29.232 217.143 29.5627 216.588 29.808C216.034 30.0427 215.335 30.16 214.492 30.16ZM223.521 30.16C222.635 30.16 221.867 29.9947 221.217 29.664C220.577 29.3333 220.081 28.8587 219.729 28.24C219.377 27.6213 219.201 26.8747 219.201 26C219.201 25.1253 219.377 24.3787 219.729 23.76C220.081 23.1413 220.571 22.6667 221.201 22.336C221.841 22.0053 222.571 21.84 223.393 21.84C224.235 21.84 224.95 22.0053 225.537 22.336C226.134 22.656 226.587 23.104 226.897 23.68C227.206 24.2453 227.361 24.896 227.361 25.632C227.361 25.824 227.355 26.016 227.345 26.208C227.334 26.4 227.318 26.56 227.297 26.688H220.961V25.232H226.097L224.801 25.728C224.801 25.088 224.683 24.5973 224.449 24.256C224.225 23.9147 223.873 23.744 223.393 23.744C223.051 23.744 222.758 23.824 222.513 23.984C222.278 24.144 222.097 24.3947 221.969 24.736C221.851 25.0773 221.793 25.5147 221.793 26.048C221.793 26.5707 221.862 26.9973 222.001 27.328C222.139 27.648 222.337 27.8827 222.593 28.032C222.849 28.1707 223.158 28.24 223.521 28.24C223.926 28.24 224.246 28.16 224.481 28C224.726 27.84 224.907 27.616 225.025 27.328L227.201 28.048C227.051 28.5067 226.79 28.896 226.417 29.216C226.054 29.5253 225.617 29.76 225.105 29.92C224.603 30.08 224.075 30.16 223.521 30.16ZM232.133 19.456V27.152C232.133 27.536 232.223 27.8133 232.405 27.984C232.597 28.144 232.858 28.224 233.189 28.224C233.445 28.224 233.663 28.1973 233.845 28.144C234.037 28.08 234.207 27.9893 234.357 27.872L234.645 29.552C234.378 29.744 234.042 29.8933 233.637 30C233.231 30.1067 232.815 30.16 232.389 30.16C231.781 30.16 231.253 30.0747 230.805 29.904C230.367 29.7333 230.026 29.4613 229.781 29.088C229.546 28.7147 229.423 28.2187 229.413 27.6V20.208L232.133 19.456ZM234.517 22V23.936H228.037V22H234.517ZM237.211 27.248C237.712 27.248 238.101 27.376 238.379 27.632C238.667 27.888 238.811 28.2453 238.811 28.704C238.811 29.152 238.667 29.504 238.379 29.76C238.101 30.016 237.712 30.144 237.211 30.144C236.72 30.144 236.331 30.016 236.043 29.76C235.755 29.504 235.611 29.152 235.611 28.704C235.611 28.2453 235.755 27.888 236.043 27.632C236.331 27.376 236.72 27.248 237.211 27.248Z" fill="#4B4DED"/>
<path d="M16 32H239.531V32.8H16V32Z" fill="#4B4DED"/>
<a href="https://www.figma.com/file/Gs53JAuLdnAs7E2B9VDpDR/%F0%9F%92%8E-iconsax-6.000-icons-Free-(Community)?node-id=2898%3A44795">
<rect fill="black" fill-opacity="0" y="0.116" width="223.531" height="18.768"/>
</a>
</g>
<path d="M262.518 26.2562C262.928 26.2562 263.254 25.9454 263.254 25.5893V19.1737L263.19 18.2221L263.6 18.7141L264.52 19.6139C264.648 19.7369 264.825 19.8082 265.009 19.8082C265.355 19.8082 265.66 19.5686 265.66 19.232C265.66 19.0637 265.582 18.9342 265.455 18.8112L263.091 16.7331C262.9 16.5583 262.709 16.5 262.518 16.5C262.32 16.5 262.128 16.5583 261.937 16.7331L259.574 18.8112C259.446 18.9342 259.369 19.0637 259.369 19.232C259.369 19.5686 259.666 19.8082 260.02 19.8082C260.204 19.8082 260.381 19.7369 260.508 19.6139L261.428 18.7141L261.838 18.2221L261.775 19.1737V25.5893C261.775 25.9454 262.107 26.2562 262.518 26.2562ZM258.413 31.5H266.587C268.165 31.5 269 30.7361 269 29.3054V23.0192C269 21.5885 268.165 20.8246 266.587 20.8246H264.726V22.3071H266.438C267.047 22.3071 267.386 22.5919 267.386 23.1811V29.15C267.386 29.7326 267.047 30.0175 266.438 30.0175H258.562C257.946 30.0175 257.621 29.7326 257.621 29.15V23.1811C257.621 22.5919 257.946 22.3071 258.562 22.3071H260.303V20.8246H258.413C256.842 20.8246 256 21.5885 256 23.0192V29.3054C256 30.7361 256.842 31.5 258.413 31.5Z" fill="black" fill-opacity="0.3"/>
<defs>
<clipPath id="clip0_56_56">
<rect width="224" height="19" fill="white" transform="translate(16 15)"/>
</clipPath>
</defs>
</svg>
