<svg width="24" height="24" viewBox="0 0 24 24" fill="none" xmlns="http://www.w3.org/2000/svg">
<path d="M19.7804 4.21911C20.1697 3.82981 20.8045 3.82733 21.1601 4.24759C22.4711 5.79663 23.3714 7.65748 23.7694 9.65841C24.2325 11.9862 23.9948 14.399 23.0866 16.5917C22.1783 18.7844 20.6402 20.6586 18.6668 21.9771C16.6935 23.2957 14.3734 23.9995 12 23.9995C9.62663 23.9995 7.30655 23.2957 5.33316 21.9771C3.35977 20.6586 1.8217 18.7844 0.913451 16.5917C0.00519937 14.399 -0.232441 11.9862 0.230582 9.65841C0.628592 7.65748 1.52895 5.79663 2.83987 4.24759C3.19553 3.82733 3.83032 3.82981 4.21962 4.21911C4.60893 4.60842 4.6045 5.23676 4.25584 5.66285C3.22011 6.92863 2.50707 8.43335 2.18602 10.0474C1.79993 11.9884 1.99809 14.0003 2.75544 15.8287C3.51279 17.6571 4.79531 19.2199 6.44083 20.3194C8.08635 21.4189 10.021 22.0057 12 22.0057C13.9791 22.0057 15.9137 21.4189 17.5592 20.3194C19.2047 19.2199 20.4872 17.6571 21.2446 15.8287C22.0019 14.0003 22.2001 11.9884 21.814 10.0474C21.4929 8.43335 20.7799 6.92863 19.7442 5.66285C19.3955 5.23676 19.3911 4.60842 19.7804 4.21911Z" fill="#292D32"/>
<rect x="11" width="2" height="12" rx="1" fill="#292D32"/>
</svg>
