<svg width="20" height="20" viewBox="0 0 20 20" fill="none" xmlns="http://www.w3.org/2000/svg">
<path d="M17.3584 6.67437L11.9 2.3077C10.8334 1.4577 9.16672 1.44936 8.10838 2.29936L2.65005 6.67437C1.86672 7.29937 1.39172 8.54936 1.55838 9.5327L2.60838 15.816C2.85005 17.2244 4.15838 18.3327 5.58338 18.3327H14.4167C15.825 18.3327 17.1584 17.1994 17.4 15.8077L18.45 9.52436C18.6 8.54936 18.125 7.29937 17.3584 6.67437ZM10.625 14.9994C10.625 15.341 10.3417 15.6244 10 15.6244C9.65838 15.6244 9.37505 15.341 9.37505 14.9994V12.4994C9.37505 12.1577 9.65838 11.8744 10 11.8744C10.3417 11.8744 10.625 12.1577 10.625 12.4994V14.9994Z" fill="#292D32"/>
</svg>
