<svg width="18" height="22" viewBox="0 0 18 22" fill="none" xmlns="http://www.w3.org/2000/svg">
<path d="M17.1395 5.88372V16.1163C17.1395 20.2093 16.1163 21.2326 12.0233 21.2326H5.88372C1.7907 21.2326 0.767442 20.2093 0.767442 16.1163V5.88372C0.767442 1.7907 1.7907 0.767442 5.88372 0.767442H12.0233C16.1163 0.767442 17.1395 1.7907 17.1395 5.88372Z" stroke="#292D32" stroke-width="1.5" stroke-linecap="round" stroke-linejoin="round"/>
<path opacity="0.4" d="M11 4.34884H6.90698" stroke="#292D32" stroke-width="1.5" stroke-linecap="round" stroke-linejoin="round"/>
<path opacity="0.4" d="M8.95344 18.2651C9.82939 18.2651 10.5395 17.555 10.5395 16.6791C10.5395 15.8031 9.82939 15.093 8.95344 15.093C8.07749 15.093 7.36739 15.8031 7.36739 16.6791C7.36739 17.555 8.07749 18.2651 8.95344 18.2651Z" stroke="#292D32" stroke-width="1.5" stroke-linecap="round" stroke-linejoin="round"/>
</svg>
