<svg width="20" height="20" viewBox="0 0 20 20" fill="none" xmlns="http://www.w3.org/2000/svg">
<path d="M13.2001 18.3326H6.80008C3.30842 18.3326 2.61675 16.2242 3.75008 13.6576L4.95008 10.9326C4.95008 10.9326 7.50008 10.8326 10.0001 11.6659C12.5001 12.4992 14.8584 10.9242 14.8584 10.9242L15.0168 10.8242L16.2584 13.6659C17.3751 16.2326 16.6418 18.3326 13.2001 18.3326Z" fill="#292D32"/>
<path d="M12.8667 5.61602H12.7333L14.5083 9.66602L14.1667 9.88268C14.15 9.89102 12.2667 11.0993 10.3917 10.4827C8.43335 9.82435 6.46668 9.70768 5.50002 9.69102L7.28335 5.61602H7.03335C6.49168 5.61602 5.99168 5.39935 5.63335 5.04102C5.27502 4.68268 5.05835 4.18268 5.05835 3.64102C5.05835 2.55768 5.94168 1.66602 7.03335 1.66602H12.9583C13.5083 1.66602 14 1.89102 14.3583 2.24935C14.825 2.71602 15.0667 3.39935 14.8834 4.12435C14.6667 5.02435 13.8 5.61602 12.8667 5.61602Z" fill="#292D32"/>
</svg>
