<svg width="20" height="20" viewBox="0 0 20 20" fill="none" xmlns="http://www.w3.org/2000/svg">
<path d="M6.80007 18.3327C3.31674 18.3327 2.61674 16.2243 3.75007 13.6577L7.29174 5.61602H7.04174C6.50007 5.61602 6.00007 5.39935 5.64174 5.04102C5.27507 4.68268 5.0584 4.18268 5.0584 3.64102C5.0584 2.55768 5.94174 1.66602 7.0334 1.66602H12.9584C13.5084 1.66602 14.0001 1.89102 14.3584 2.24935C14.8251 2.71602 15.0584 3.39935 14.8834 4.12435C14.6584 5.02435 13.7917 5.61602 12.8667 5.61602H12.7334L16.2501 13.666C17.3751 16.2327 16.6417 18.3327 13.1917 18.3327H6.80007Z" stroke="#292D32" stroke-width="1.5" stroke-linecap="round" stroke-linejoin="round"/>
<path d="M4.94995 10.9341C4.94995 10.9341 7.49995 10.8341 9.99995 11.6674C12.5 12.5008 14.8583 10.9258 14.8583 10.9258" stroke="#292D32" stroke-width="1.5" stroke-linecap="round" stroke-linejoin="round"/>
</svg>
